<mxfile host="app.diagrams.net" agent="Mozilla/5.0 (Windows NT 10.0; Win64; x64) AppleWebKit/537.36 (KHTML, like Gecko) Chrome/133.0.0.0 Safari/537.36" version="26.0.16">
  <diagram name="Page-1" id="NlXaOc0ey751u2Azlf2g">
    <mxGraphModel dx="1050" dy="522" grid="1" gridSize="10" guides="1" tooltips="1" connect="1" arrows="1" fold="1" page="1" pageScale="1" pageWidth="850" pageHeight="1100" math="0" shadow="0">
      <root>
        <mxCell id="0" />
        <mxCell id="1" parent="0" />
        <mxCell id="TBa2WA2_in0tisGMNmSw-3" style="edgeStyle=orthogonalEdgeStyle;rounded=0;orthogonalLoop=1;jettySize=auto;html=1;exitX=0;exitY=0.5;exitDx=0;exitDy=0;entryX=0.5;entryY=0;entryDx=0;entryDy=0;" edge="1" parent="1" source="TBa2WA2_in0tisGMNmSw-1" target="TBa2WA2_in0tisGMNmSw-6">
          <mxGeometry relative="1" as="geometry">
            <mxPoint x="240" y="160" as="targetPoint" />
          </mxGeometry>
        </mxCell>
        <mxCell id="TBa2WA2_in0tisGMNmSw-4" style="edgeStyle=orthogonalEdgeStyle;rounded=0;orthogonalLoop=1;jettySize=auto;html=1;exitX=1;exitY=0.5;exitDx=0;exitDy=0;entryX=0.5;entryY=0;entryDx=0;entryDy=0;" edge="1" parent="1" source="TBa2WA2_in0tisGMNmSw-1" target="TBa2WA2_in0tisGMNmSw-7">
          <mxGeometry relative="1" as="geometry">
            <mxPoint x="600" y="160" as="targetPoint" />
          </mxGeometry>
        </mxCell>
        <mxCell id="TBa2WA2_in0tisGMNmSw-8" style="edgeStyle=orthogonalEdgeStyle;rounded=0;orthogonalLoop=1;jettySize=auto;html=1;exitX=0.5;exitY=1;exitDx=0;exitDy=0;entryX=0.5;entryY=0;entryDx=0;entryDy=0;" edge="1" parent="1" source="TBa2WA2_in0tisGMNmSw-1" target="TBa2WA2_in0tisGMNmSw-5">
          <mxGeometry relative="1" as="geometry" />
        </mxCell>
        <mxCell id="TBa2WA2_in0tisGMNmSw-1" value="Load balancer" style="rounded=1;whiteSpace=wrap;html=1;" vertex="1" parent="1">
          <mxGeometry x="320" y="60" width="200" height="40" as="geometry" />
        </mxCell>
        <mxCell id="TBa2WA2_in0tisGMNmSw-10" style="edgeStyle=orthogonalEdgeStyle;rounded=0;orthogonalLoop=1;jettySize=auto;html=1;entryX=0.5;entryY=0;entryDx=0;entryDy=0;exitX=0.5;exitY=0;exitDx=0;exitDy=0;" edge="1" parent="1" source="TBa2WA2_in0tisGMNmSw-9" target="TBa2WA2_in0tisGMNmSw-9">
          <mxGeometry relative="1" as="geometry" />
        </mxCell>
        <mxCell id="TBa2WA2_in0tisGMNmSw-13" style="edgeStyle=orthogonalEdgeStyle;rounded=0;orthogonalLoop=1;jettySize=auto;html=1;exitX=0.5;exitY=1;exitDx=0;exitDy=0;entryX=0.5;entryY=0;entryDx=0;entryDy=0;" edge="1" parent="1" source="TBa2WA2_in0tisGMNmSw-5" target="TBa2WA2_in0tisGMNmSw-9">
          <mxGeometry relative="1" as="geometry" />
        </mxCell>
        <mxCell id="TBa2WA2_in0tisGMNmSw-5" value="Server 2" style="rounded=0;whiteSpace=wrap;html=1;" vertex="1" parent="1">
          <mxGeometry x="360" y="160" width="120" height="60" as="geometry" />
        </mxCell>
        <mxCell id="TBa2WA2_in0tisGMNmSw-16" style="edgeStyle=orthogonalEdgeStyle;rounded=0;orthogonalLoop=1;jettySize=auto;html=1;exitX=1;exitY=0.5;exitDx=0;exitDy=0;entryX=0;entryY=0.5;entryDx=0;entryDy=0;" edge="1" parent="1" source="TBa2WA2_in0tisGMNmSw-6" target="TBa2WA2_in0tisGMNmSw-9">
          <mxGeometry relative="1" as="geometry" />
        </mxCell>
        <mxCell id="TBa2WA2_in0tisGMNmSw-6" value="Server 1" style="rounded=0;whiteSpace=wrap;html=1;" vertex="1" parent="1">
          <mxGeometry x="180" y="160" width="120" height="60" as="geometry" />
        </mxCell>
        <mxCell id="TBa2WA2_in0tisGMNmSw-12" style="edgeStyle=orthogonalEdgeStyle;rounded=0;orthogonalLoop=1;jettySize=auto;html=1;exitX=0.5;exitY=1;exitDx=0;exitDy=0;entryX=1;entryY=0.5;entryDx=0;entryDy=0;" edge="1" parent="1" source="TBa2WA2_in0tisGMNmSw-7" target="TBa2WA2_in0tisGMNmSw-9">
          <mxGeometry relative="1" as="geometry" />
        </mxCell>
        <mxCell id="TBa2WA2_in0tisGMNmSw-7" value="Server 3" style="rounded=0;whiteSpace=wrap;html=1;" vertex="1" parent="1">
          <mxGeometry x="540" y="160" width="120" height="60" as="geometry" />
        </mxCell>
        <mxCell id="TBa2WA2_in0tisGMNmSw-9" value="Load balancer&lt;div&gt;for DB&lt;/div&gt;" style="rounded=1;whiteSpace=wrap;html=1;" vertex="1" parent="1">
          <mxGeometry x="360" y="280" width="120" height="60" as="geometry" />
        </mxCell>
        <mxCell id="TBa2WA2_in0tisGMNmSw-17" value="DB" style="shape=cylinder3;whiteSpace=wrap;html=1;boundedLbl=1;backgroundOutline=1;size=15;" vertex="1" parent="1">
          <mxGeometry x="300" y="390" width="60" height="80" as="geometry" />
        </mxCell>
        <mxCell id="TBa2WA2_in0tisGMNmSw-18" value="DB1" style="shape=cylinder3;whiteSpace=wrap;html=1;boundedLbl=1;backgroundOutline=1;size=15;" vertex="1" parent="1">
          <mxGeometry x="480" y="390" width="60" height="80" as="geometry" />
        </mxCell>
        <mxCell id="TBa2WA2_in0tisGMNmSw-24" value="" style="endArrow=classic;html=1;rounded=0;exitX=0;exitY=1;exitDx=0;exitDy=0;entryX=0.145;entryY=0;entryDx=0;entryDy=4.35;entryPerimeter=0;" edge="1" parent="1" source="TBa2WA2_in0tisGMNmSw-9" target="TBa2WA2_in0tisGMNmSw-17">
          <mxGeometry width="50" height="50" relative="1" as="geometry">
            <mxPoint x="160" y="330" as="sourcePoint" />
            <mxPoint x="240" y="440" as="targetPoint" />
          </mxGeometry>
        </mxCell>
        <mxCell id="TBa2WA2_in0tisGMNmSw-25" value="" style="endArrow=classic;html=1;rounded=0;exitX=1;exitY=1;exitDx=0;exitDy=0;entryX=0.855;entryY=0;entryDx=0;entryDy=4.35;entryPerimeter=0;" edge="1" parent="1" source="TBa2WA2_in0tisGMNmSw-9" target="TBa2WA2_in0tisGMNmSw-18">
          <mxGeometry width="50" height="50" relative="1" as="geometry">
            <mxPoint x="520" y="330" as="sourcePoint" />
            <mxPoint x="600" y="440" as="targetPoint" />
          </mxGeometry>
        </mxCell>
        <mxCell id="TBa2WA2_in0tisGMNmSw-27" value="" style="endArrow=classic;startArrow=classic;html=1;rounded=0;exitX=1;exitY=0.5;exitDx=0;exitDy=0;exitPerimeter=0;entryX=0;entryY=0.5;entryDx=0;entryDy=0;entryPerimeter=0;" edge="1" parent="1" source="TBa2WA2_in0tisGMNmSw-17" target="TBa2WA2_in0tisGMNmSw-18">
          <mxGeometry width="50" height="50" relative="1" as="geometry">
            <mxPoint x="395" y="440" as="sourcePoint" />
            <mxPoint x="445" y="390" as="targetPoint" />
          </mxGeometry>
        </mxCell>
      </root>
    </mxGraphModel>
  </diagram>
</mxfile>
